<svg xmlns="http://www.w3.org/2000/svg" xmlns:xlink="http://www.w3.org/1999/xlink" xmlns:lucid="lucid" width="1554.67" height="678"><g transform="translate(-40 -12)" lucid:page-tab-id="0_0"><path d="M0 0h1870.4v1323.2H0z" fill="#fff"/><path d="M1234.67 44h280v120h-280z" stroke="#000" stroke-width="2" fill="#fff"/><use xlink:href="#a" transform="matrix(1,0,0,1,1242.666666666667,52) translate(81.57499999999999 55.6)"/><path d="M1298.67 239h160v120h-160z" stroke="#000" stroke-width="2" fill="#fff"/><use xlink:href="#b" transform="matrix(1,0,0,1,1306.666666666667,246.99999999999994) translate(53.025 55.6)"/><path d="M1379.67 238h-2v-25.7h2zm-4-47.3h-2V165h2zM1375.67 165h-2v-3h2zM1379.67 241h-2v-3h2z"/><use xlink:href="#c" transform="matrix(1,0,0,1,1356.666666666667,164.2) translate(0 14.4)"/><use xlink:href="#d" transform="matrix(1,0,0,1,1386.666666666667,217.19999999999993) translate(0 14.4)"/><use xlink:href="#e" transform="matrix(1,0,0,1,1333.741666666667,190.69999999999996) translate(0 14.4)"/><path d="M1500.67 331.33h-41v-2h39v-8.2h2zm0-31.8h-2v-32.2h-39v-2h41zM1459.67 267.33h-3v-2h3zM1459.67 331.33h-3v-2h3z"/><use xlink:href="#f" transform="matrix(1,0,0,1,1459.666666666667,270.33333333333326) translate(0 14.4)"/><use xlink:href="#g" transform="matrix(1,0,0,1,1459.666666666667,334.33333333333326) translate(0 14.4)"/><use xlink:href="#h" transform="matrix(1,0,0,1,1471.191666666667,299.5333333333333) translate(0 14.4)"/><path d="M1100 188.5h134.67v98H1100z" stroke="#000" stroke-width="2" fill="#fff"/><use xlink:href="#i" transform="matrix(1,0,0,1,1108,196.5) translate(21.025 44.6)"/><path d="M1233.67 136h-66.34v51.5M1233.67 136h3M1167.33 187.5v3" stroke="#000" stroke-width="2" fill="none"/><use xlink:href="#c" transform="matrix(1,0,0,1,1223.666666666667,110.40000000000002) translate(0 14.4)"/><use xlink:href="#c" transform="matrix(1,0,0,1,1175.3333333333335,166.69999999999996) translate(0 14.4)"/><path d="M1235.67 266.42h31v7.9h31M1235.67 266.42h-3M1297.67 274.33h3" stroke="#000" stroke-width="2" fill="none"/><use xlink:href="#c" transform="matrix(1,0,0,1,1234.666667,270.42257141055813) translate(0 14.4)"/><use xlink:href="#c" transform="matrix(1,0,0,1,1287.666666666667,248.73333333333323) translate(0 14.4)"/><path d="M1234.67 492h160v120h-160z" stroke="#000" stroke-width="2" fill="#fff"/><use xlink:href="#j" transform="matrix(1,0,0,1,1242.666666666667,500) translate(16.599999999999994 55.6)"/><path d="M1414.67 492h160v120h-160z" stroke="#000" stroke-width="2" fill="#fff"/><use xlink:href="#k" transform="matrix(1,0,0,1,1422.666666666667,500) translate(21.599999999999994 55.6)"/><path d="M1314.67 491v-65.5h64v-41.54M1314.67 491v3" stroke="#000" stroke-width="2" fill="none"/><path d="M1378.67 361.96l12.72 21.52h-25.46z" stroke="#000" stroke-width="2" fill="#fff"/><path d="M1494.67 491v-65.5h-116M1494.67 491v3" stroke="#000" stroke-width="2" fill="none"/><path d="M960 311h200v120H960z" stroke="#000" stroke-width="2" fill="#fff"/><use xlink:href="#l" transform="matrix(1,0,0,1,968,318.99999999999994) translate(29.099999999999994 55.6)"/><use xlink:href="#m" transform="matrix(1,0,0,1,968,318.99999999999994) translate(75.05 55.6)"/><path d="M754.67 273H880v77H754.67z" stroke="#000" stroke-width="2" fill="#fff"/><use xlink:href="#n" transform="matrix(1,0,0,1,762.6666666666671,281) translate(24.574999999999996 34.1)"/><path d="M1099 237.5h-39V310M1099 237.5h3M1060 310v3" stroke="#000" stroke-width="2" fill="none"/><use xlink:href="#c" transform="matrix(1,0,0,1,1089,211.89999999999995) translate(0 14.4)"/><use xlink:href="#d" transform="matrix(1,0,0,1,1068,289.1999999999999) translate(0 14.4)"/><path d="M959 371H817.33v-20M959 371h3M817.33 351v-3" stroke="#000" stroke-width="2" fill="none"/><use xlink:href="#d" transform="matrix(1,0,0,1,949,345.3999999999999) translate(0 14.4)"/><use xlink:href="#c" transform="matrix(1,0,0,1,799.3333333333336,350.20000000000005) translate(0 14.4)"/><path d="M560 32h220v120H560z" stroke="#000" stroke-width="2" fill="#fff"/><use xlink:href="#o" transform="matrix(1,0,0,1,568,40) translate(78.025 55.6)"/><path d="M818.33 272h-2v-41.53h2zm0-63.13h-2V154H780v-2h38.33zM780 154h-3v-2h3zM818.33 275h-2v-3h2z"/><use xlink:href="#g" transform="matrix(1,0,0,1,775,156.99999999999997) translate(0 14.4)"/><use xlink:href="#p" transform="matrix(1,0,0,1,825.3333333333336,251.19999999999987) translate(0 14.4)"/><use xlink:href="#q" transform="matrix(1,0,0,1,770.3833333333336,208.86666666666662) translate(0 14.4)"/><path d="M300 93h160v120H300z" stroke="#000" stroke-width="2" fill="#fff"/><use xlink:href="#r" transform="matrix(1,0,0,1,308,101) translate(43.525 55.6)"/><path d="M461 153h49V92h17.6M461 153h-3" stroke="#000" stroke-width="2" fill="none"/><path d="M557.6 92l-14.86 14.85L527.6 92l15.14-14.85z" stroke="#000" stroke-width="2"/><use xlink:href="#d" transform="matrix(1,0,0,1,461,156.99999999999997) translate(0 14.4)"/><use xlink:href="#c" transform="matrix(1,0,0,1,549,66.4) translate(0 14.4)"/><path d="M100 32h160v120H100z" stroke="#000" stroke-width="2" fill="#fff"/><use xlink:href="#s" transform="matrix(1,0,0,1,108,40) translate(38.525 55.6)"/><path d="M527.6 50.33H261" stroke="#000" stroke-width="2" fill="none"/><path d="M557.6 50.33l-14.86 14.85-15.15-14.85 15.14-14.85z" stroke="#000" stroke-width="2"/><path d="M261 50.33h-3" stroke="#000" stroke-width="2" fill="none"/><use xlink:href="#t" transform="matrix(1,0,0,1,544.5,24.733333333333345) translate(0 14.4)"/><use xlink:href="#u" transform="matrix(1,0,0,1,544.5,24.733333333333345) translate(5 14.4)"/><use xlink:href="#d" transform="matrix(1,0,0,1,260.0010000000001,54.33333333333333) translate(0 14.4)"/><path d="M260 271h120v81H260z" stroke="#000" stroke-width="2" fill="#fff"/><use xlink:href="#v" transform="matrix(1,0,0,1,268,279) translate(15.099999999999994 36.1)"/><path d="M340 377h120v81H340z" stroke="#000" stroke-width="2" fill="#fff"/><use xlink:href="#w" transform="matrix(1,0,0,1,348,385) translate(20.074999999999996 36.1)"/><path d="M420 273h120v81H420z" stroke="#000" stroke-width="2" fill="#fff"/><use xlink:href="#x" transform="matrix(1,0,0,1,428,281) translate(33 36.1)"/><path d="M347.33 270v-32.04M347.33 270v3" stroke="#000" stroke-width="2" fill="none"/><path d="M347.33 215.96l12.73 21.52H334.6z" stroke="#000" stroke-width="2" fill="#fff"/><path d="M400 376V237.97M400 376v3" stroke="#000" stroke-width="2" fill="none"/><path d="M400 215.97l12.73 21.5h-25.46z" stroke="#000" stroke-width="2" fill="#fff"/><path d="M435.33 272v-34.04M435.33 272v3" stroke="#000" stroke-width="2" fill="none"/><path d="M435.33 215.96l12.73 21.52H422.6zM160 231h80v81h-80z" stroke="#000" stroke-width="2" fill="#fff"/><use xlink:href="#y" transform="matrix(1,0,0,1,168,239) translate(6.549999999999997 36.1)"/><path d="M560 239h160v120H560z" stroke="#000" stroke-width="2" fill="#fff"/><use xlink:href="#z" transform="matrix(1,0,0,1,568,246.99999999999994) translate(-3.325000000000003 55.6)"/><path d="M661.33 238v-40H690v40M661.33 238v3M690 238v3" stroke="#000" stroke-width="2" fill="none"/><use xlink:href="#A" transform="matrix(1,0,0,1,662.377473485736,173.51015526561807) translate(0 14.4)"/><use xlink:href="#B" transform="matrix(1,0,0,1,662.377473485736,173.51015526561807) translate(56 14.4)"/><use xlink:href="#g" transform="matrix(1,0,0,1,669.3333333333334,217.19999999999993) translate(0 14.4)"/><use xlink:href="#f" transform="matrix(1,0,0,1,698,217.1999999999999) translate(0 14.4)"/><path d="M601 238h-2v-31.7h2zm0-53.3h-2v-.3h2zM601 241h-2v-3h2z"/><path d="M614.85 169.26L600 184.4l-14.85-15.14L600 154.4z"/><path d="M616.26 169.26l-15.14 15.44h-2.24l-15.14-15.44L600 153zm-29.7 0L600 183l13.44-13.73L600 155.83z"/><use xlink:href="#c" transform="matrix(1,0,0,1,608,217.19999999999993) translate(0 14.4)"/><use xlink:href="#t" transform="matrix(1,0,0,1,571.05,152.626295824694) translate(0 14.4)"/><use xlink:href="#C" transform="matrix(1,0,0,1,571.05,152.626295824694) translate(5 14.4)"/><use xlink:href="#D" transform="matrix(1,0,0,1,573.525,184.69999999999996) translate(0 14.4)"/><use xlink:href="#E" transform="matrix(1,0,0,1,573.525,184.69999999999996) translate(37.95 14.4)"/><path d="M565.33 481h240v120h-240z" stroke="#000" stroke-width="2" fill="#fff"/><use xlink:href="#F" transform="matrix(1,0,0,1,573.333333333333,489) translate(53.099999999999994 55.6)"/><use xlink:href="#G" transform="matrix(1,0,0,1,573.333333333333,489) translate(115.95 55.6)"/><path d="M686.33 448.6h-2v-8.77h2zM681 418.22h-2V360h2zM681 360h-2v-3h2z"/><path d="M700.18 463.74l-14.85 14.85-14.85-14.86 14.85-15.15z"/><path d="M701.6 463.74L685.32 480l-16.25-16.26 16.25-16.58zm-29.7 0l13.43 13.43 13.45-13.44L685.33 450z"/><use xlink:href="#g" transform="matrix(1,0,0,1,662,359.19999999999993) translate(0 14.4)"/><use xlink:href="#H" transform="matrix(1,0,0,1,693.333333333333,459.2) translate(0 14.4)"/><use xlink:href="#u" transform="matrix(1,0,0,1,693.333333333333,459.2) translate(10 14.4)"/><use xlink:href="#I" transform="matrix(1,0,0,1,658.858333333333,418.2330610657332) translate(0 14.4)"/><use xlink:href="#J" transform="matrix(1,0,0,1,658.858333333333,418.2330610657332) translate(37.95 14.4)"/><path d="M200 230v-53.04M200 230v3" stroke="#000" stroke-width="2" fill="none"/><path d="M200 154.96l12.73 21.52h-25.46z" stroke="#000" stroke-width="2" fill="#fff"/><path d="M512.67 355v38H937v13.67h22M512.67 355v-3M959 406.67h3" stroke="#000" stroke-width="2" fill="none"/><use xlink:href="#c" transform="matrix(1,0,0,1,494.66666666666663,354.2) translate(0 14.4)"/><use xlink:href="#c" transform="matrix(1,0,0,1,949,381.0666666666666) translate(0 14.4)"/><path d="M320 481h160v120H320z" stroke="#000" stroke-width="2" fill="#fff"/><use xlink:href="#K" transform="matrix(1,0,0,1,328,489) translate(36.55 44.8)"/><use xlink:href="#L" transform="matrix(1,0,0,1,328,489) translate(37.025 66.4)"/><path d="M481 562h83.33M481 562h-3M564.33 562h3" stroke="#000" stroke-width="2" fill="none"/><use xlink:href="#d" transform="matrix(1,0,0,1,481,566) translate(0 14.4)"/><use xlink:href="#c" transform="matrix(1,0,0,1,554.333333333333,536.4) translate(0 14.4)"/><path d="M900 192h120v81H900z" stroke="#000" stroke-width="2" fill="#fff"/><use xlink:href="#M" transform="matrix(1,0,0,1,908,200) translate(18.525 36.1)"/><path d="M1120 481h100v120h-100z" stroke="#000" stroke-width="2" fill="#fff"/><use xlink:href="#N" transform="matrix(1,0,0,1,1128,489) translate(11.074999999999996 44.8)"/><use xlink:href="#O" transform="matrix(1,0,0,1,1128,489) translate(21.525 66.4)"/><path d="M1119 528.9h-19v8.27h-19M1119 528.9h3M1081 537.17h-3" stroke="#000" stroke-width="2" fill="none"/><use xlink:href="#d" transform="matrix(1,0,0,1,1109,503.3111111111112) translate(0 14.4)"/><use xlink:href="#g" transform="matrix(1,0,0,1,1080.1416521348842,541.1666666666666) translate(0 14.4)"/><path d="M920 455.5h160v120H920z" stroke="#000" stroke-width="2" fill="#fff"/><use xlink:href="#N" transform="matrix(1,0,0,1,928,463.49999999999994) translate(41.074999999999996 44.8)"/><use xlink:href="#P" transform="matrix(1,0,0,1,928,463.49999999999994) translate(30.549999999999997 66.4)"/><path d="M919 515.5h-72.67V541h-40M919 515.5h3M806.33 541h-3" stroke="#000" stroke-width="2" fill="none"/><use xlink:href="#g" transform="matrix(1,0,0,1,909,489.90000000000003) translate(0 14.4)"/><use xlink:href="#g" transform="matrix(1,0,0,1,806.333333333333,545) translate(0 14.4)"/><path d="M900 612h80v58h-80z" stroke="#000" stroke-width="2" fill="#fff"/><use xlink:href="#Q" transform="matrix(1,0,0,1,908,620) translate(26 24.6)"/><path d="M1020 612h80v58h-80z" stroke="#000" stroke-width="2" fill="#fff"/><use xlink:href="#R" transform="matrix(1,0,0,1,1028,620) translate(26 24.6)"/><path d="M940 611v-10.54M940 611v3" stroke="#000" stroke-width="2" fill="none"/><path d="M940 578.46l12.73 21.52h-25.46z" stroke="#000" stroke-width="2" fill="#fff"/><path d="M1060 611v-10.54M1060 611v3" stroke="#000" stroke-width="2" fill="none"/><path d="M1060 578.46l12.73 21.52h-25.46zM840 52h100v80H840z" stroke="#000" stroke-width="2" fill="#fff"/><use xlink:href="#S" transform="matrix(1,0,0,1,840.0000000000001,52) translate(14.529999999999996 44.4)"/><path d="M941 69.67h252.67V65h40M941 69.67h-3M1233.67 65h3" stroke="#000" stroke-width="2" fill="none"/><use xlink:href="#d" transform="matrix(1,0,0,1,941,73.66666666666666) translate(0 14.4)"/><use xlink:href="#c" transform="matrix(1,0,0,1,1223.666666666667,39.400000000000006) translate(0 14.4)"/><path d="M815.04 92H781" stroke="#000" stroke-width="2" fill="none"/><path d="M837.04 92l-21.52 12.73V79.27z" stroke="#000" stroke-width="2" fill="#fff"/><path d="M781 92h-3" stroke="#000" stroke-width="2" fill="none"/><path d="M1020 93h120v80h-120z" stroke="#000" stroke-width="2" fill="#fff"/><use xlink:href="#T" transform="matrix(1,0,0,1,1028,101) translate(29.525 24.799999999999997)"/><use xlink:href="#U" transform="matrix(1,0,0,1,1028,101) translate(16.525 46.4)"/><path d="M1019 133h-39v-16.67h-15.04M1019 133h3" stroke="#000" stroke-width="2" fill="none"/><path d="M942.96 116.33l21.52-12.72v25.46z" stroke="#000" stroke-width="2" fill="#fff"/><path d="M930.67 274v37.5H881M930.67 274v-3M881 311.5h-3" stroke="#000" stroke-width="2" fill="none"/><use xlink:href="#c" transform="matrix(1,0,0,1,912.6666666666667,273.2) translate(0 14.4)"/><g><use xlink:href="#V" transform="matrix(1,0,0,1,880.999999666667,315.49999999999994) translate(0 14.4)"/><use xlink:href="#W" transform="matrix(1,0,0,1,880.999999666667,315.49999999999994) translate(10 14.4)"/></g><path d="M1297.67 353.33H1270V442h-78.75v38M1297.67 353.33h3M1191.25 480v3" stroke="#000" stroke-width="2" fill="none"/><g><use xlink:href="#g" transform="matrix(1,0,0,1,1287.666666666667,327.7333333333333) translate(0 14.4)"/></g><g><use xlink:href="#f" transform="matrix(1,0,0,1,1199.2499999999998,459.1999999999999) translate(0 14.4)"/></g><path d="M60 230h80v81H60z" stroke="#000" stroke-width="2" fill="#fff"/><g><use xlink:href="#X" transform="matrix(1,0,0,1,68,238) translate(5.574999999999996 36.1)"/></g><path d="M100 229v-38h34.67v-14.04M100 229v3" stroke="#000" stroke-width="2" fill="none"/><path d="M134.67 154.96l12.72 21.52h-25.46z" stroke="#000" stroke-width="2" fill="#fff"/><defs><path d="M30 0v-248h187v28H63v79h144v27H63v87h162V0H30" id="Y"/><path d="M117-194c89-4 53 116 60 194h-32v-121c0-31-8-49-39-48C34-167 62-67 57 0H25l-1-190h30c1 10-1 24 2 32 11-22 29-35 61-36" id="Z"/><path d="M108 0H70L1-190h34L89-25l56-165h34" id="aa"/><path d="M24-231v-30h32v30H24zM24 0v-190h32V0H24" id="ab"/><path d="M114-163C36-179 61-72 57 0H25l-1-190h30c1 12-1 29 2 39 6-27 23-49 58-41v29" id="ac"/><path d="M100-194c62-1 85 37 85 99 1 63-27 99-86 99S16-35 15-95c0-66 28-99 85-99zM99-20c44 1 53-31 53-75 0-43-8-75-51-75s-53 32-53 75 10 74 51 75" id="ad"/><path d="M210-169c-67 3-38 105-44 169h-31v-121c0-29-5-50-35-48C34-165 62-65 56 0H25l-1-190h30c1 10-1 24 2 32 10-44 99-50 107 0 11-21 27-35 58-36 85-2 47 119 55 194h-31v-121c0-29-5-49-35-48" id="ae"/><path d="M100-194c63 0 86 42 84 106H49c0 40 14 67 53 68 26 1 43-12 49-29l28 8c-11 28-37 45-77 45C44 4 14-33 15-96c1-61 26-98 85-98zm52 81c6-60-76-77-97-28-3 7-6 17-6 28h103" id="af"/><path d="M59-47c-2 24 18 29 38 22v24C64 9 27 4 27-40v-127H5v-23h24l9-43h21v43h35v23H59v120" id="ag"/><g id="a"><use transform="matrix(0.05,0,0,0.05,0,0)" xlink:href="#Y"/><use transform="matrix(0.05,0,0,0.05,12,0)" xlink:href="#Z"/><use transform="matrix(0.05,0,0,0.05,22,0)" xlink:href="#aa"/><use transform="matrix(0.05,0,0,0.05,31,0)" xlink:href="#ab"/><use transform="matrix(0.05,0,0,0.05,34.95,0)" xlink:href="#ac"/><use transform="matrix(0.05,0,0,0.05,40.900000000000006,0)" xlink:href="#ad"/><use transform="matrix(0.05,0,0,0.05,50.900000000000006,0)" xlink:href="#Z"/><use transform="matrix(0.05,0,0,0.05,60.900000000000006,0)" xlink:href="#ae"/><use transform="matrix(0.05,0,0,0.05,75.85000000000001,0)" xlink:href="#af"/><use transform="matrix(0.05,0,0,0.05,85.85000000000001,0)" xlink:href="#Z"/><use transform="matrix(0.05,0,0,0.05,95.85000000000001,0)" xlink:href="#ag"/></g><path d="M205 0l-28-72H64L36 0H1l101-248h38L239 0h-34zm-38-99l-47-123c-12 45-31 82-46 123h93" id="ah"/><path d="M141-36C126-15 110 5 73 4 37 3 15-17 15-53c-1-64 63-63 125-63 3-35-9-54-41-54-24 1-41 7-42 31l-33-3c5-37 33-52 76-52 45 0 72 20 72 64v82c-1 20 7 32 28 27v20c-31 9-61-2-59-35zM48-53c0 20 12 33 32 33 41-3 63-29 60-74-43 2-92-5-92 41" id="ai"/><g id="b"><use transform="matrix(0.05,0,0,0.05,0,0)" xlink:href="#ah"/><use transform="matrix(0.05,0,0,0.05,12,0)" xlink:href="#ac"/><use transform="matrix(0.05,0,0,0.05,17.95,0)" xlink:href="#af"/><use transform="matrix(0.05,0,0,0.05,27.950000000000003,0)" xlink:href="#ai"/></g><path d="M27 0v-27h64v-190l-56 39v-29l58-41h29v221h61V0H27" id="aj"/><use transform="matrix(0.05,0,0,0.05,0,0)" xlink:href="#aj" id="c"/><use transform="matrix(0.05,0,0,0.05,0,0)" xlink:href="#Z" id="d"/><path d="M30-248c87 1 191-15 191 75 0 78-77 80-158 76V0H30v-248zm33 125c57 0 124 11 124-50 0-59-68-47-124-48v98" id="ak"/><path d="M85-194c31 0 48 13 60 33l-1-100h32l1 261h-30c-2-10 0-23-3-31C134-8 116 4 85 4 32 4 16-35 15-94c0-66 23-100 70-100zm9 24c-40 0-46 34-46 75 0 40 6 74 45 74 42 0 51-32 51-76 0-42-9-74-50-73" id="al"/><g id="e"><use transform="matrix(0.05,0,0,0.05,0,0)" xlink:href="#ak"/><use transform="matrix(0.05,0,0,0.05,12,0)" xlink:href="#ai"/><use transform="matrix(0.05,0,0,0.05,22,0)" xlink:href="#ac"/><use transform="matrix(0.05,0,0,0.05,27.950000000000003,0)" xlink:href="#ag"/><use transform="matrix(0.05,0,0,0.05,32.95,0)" xlink:href="#ab"/><use transform="matrix(0.05,0,0,0.05,36.900000000000006,0)" xlink:href="#ag"/><use transform="matrix(0.05,0,0,0.05,41.900000000000006,0)" xlink:href="#ab"/><use transform="matrix(0.05,0,0,0.05,45.85000000000001,0)" xlink:href="#ad"/><use transform="matrix(0.05,0,0,0.05,55.85,0)" xlink:href="#Z"/><use transform="matrix(0.05,0,0,0.05,65.85000000000001,0)" xlink:href="#af"/><use transform="matrix(0.05,0,0,0.05,75.85000000000001,0)" xlink:href="#al"/></g><use transform="matrix(0.05,0,0,0.05,0,0)" xlink:href="#Z" id="f"/><use transform="matrix(0.05,0,0,0.05,0,0)" xlink:href="#aj" id="g"/><path d="M190 0L58-211 59 0H30v-248h39L202-35l-2-213h31V0h-41" id="am"/><path d="M135-143c-3-34-86-38-87 0 15 53 115 12 119 90S17 21 10-45l28-5c4 36 97 45 98 0-10-56-113-15-118-90-4-57 82-63 122-42 12 7 21 19 24 35" id="an"/><g id="h"><use transform="matrix(0.05,0,0,0.05,0,0)" xlink:href="#am"/><use transform="matrix(0.05,0,0,0.05,12.950000000000001,0)" xlink:href="#af"/><use transform="matrix(0.05,0,0,0.05,22.950000000000003,0)" xlink:href="#an"/><use transform="matrix(0.05,0,0,0.05,31.950000000000003,0)" xlink:href="#ag"/><use transform="matrix(0.05,0,0,0.05,36.95,0)" xlink:href="#af"/><use transform="matrix(0.05,0,0,0.05,46.95,0)" xlink:href="#al"/></g><path d="M160-131c35 5 61 23 61 61C221 17 115-2 30 0v-248c76 3 177-17 177 60 0 33-19 50-47 57zm-97-11c50-1 110 9 110-42 0-47-63-36-110-37v79zm0 115c55-2 124 14 124-45 0-56-70-42-124-44v89" id="ao"/><path d="M84 4C-5 8 30-112 23-190h32v120c0 31 7 50 39 49 72-2 45-101 50-169h31l1 190h-30c-1-10 1-25-2-33-11 22-28 36-60 37" id="ap"/><path d="M179-190L93 31C79 59 56 82 12 73V49c39 6 53-20 64-50L1-190h34L92-34l54-156h33" id="aq"/><g id="i"><use transform="matrix(0.05,0,0,0.05,0,0)" xlink:href="#ao"/><use transform="matrix(0.05,0,0,0.05,12,0)" xlink:href="#ad"/><use transform="matrix(0.05,0,0,0.05,22,0)" xlink:href="#ap"/><use transform="matrix(0.05,0,0,0.05,32,0)" xlink:href="#Z"/><use transform="matrix(0.05,0,0,0.05,42,0)" xlink:href="#al"/><use transform="matrix(0.05,0,0,0.05,52,0)" xlink:href="#ai"/><use transform="matrix(0.05,0,0,0.05,62,0)" xlink:href="#ac"/><use transform="matrix(0.05,0,0,0.05,67.95,0)" xlink:href="#aq"/></g><path d="M106-169C34-169 62-67 57 0H25v-261h32l-1 103c12-21 28-36 61-36 89 0 53 116 60 194h-32v-121c2-32-8-49-39-48" id="ar"/><path d="M96-169c-40 0-48 33-48 73s9 75 48 75c24 0 41-14 43-38l32 2c-6 37-31 61-74 61-59 0-76-41-82-99-10-93 101-131 147-64 4 7 5 14 7 22l-32 3c-4-21-16-35-41-35" id="as"/><path d="M24 0v-261h32V0H24" id="at"/><path d="M16-82v-28h88v28H16" id="au"/><g id="j"><use transform="matrix(0.05,0,0,0.05,0,0)" xlink:href="#ak"/><use transform="matrix(0.05,0,0,0.05,12,0)" xlink:href="#ar"/><use transform="matrix(0.05,0,0,0.05,22,0)" xlink:href="#aq"/><use transform="matrix(0.05,0,0,0.05,31,0)" xlink:href="#an"/><use transform="matrix(0.05,0,0,0.05,40,0)" xlink:href="#ab"/><use transform="matrix(0.05,0,0,0.05,43.95,0)" xlink:href="#as"/><use transform="matrix(0.05,0,0,0.05,52.95,0)" xlink:href="#ai"/><use transform="matrix(0.05,0,0,0.05,62.95,0)" xlink:href="#at"/><use transform="matrix(0.05,0,0,0.05,66.9,0)" xlink:href="#au"/><use transform="matrix(0.05,0,0,0.05,72.85000000000001,0)" xlink:href="#ah"/><use transform="matrix(0.05,0,0,0.05,84.85000000000001,0)" xlink:href="#ac"/><use transform="matrix(0.05,0,0,0.05,90.80000000000001,0)" xlink:href="#af"/><use transform="matrix(0.05,0,0,0.05,100.80000000000001,0)" xlink:href="#ai"/></g><path d="M30 0v-248h33v221h125V0H30" id="av"/><path d="M177-190C167-65 218 103 67 71c-23-6-38-20-44-43l32-5c15 47 100 32 89-28v-30C133-14 115 1 83 1 29 1 15-40 15-95c0-56 16-97 71-98 29-1 48 16 59 35 1-10 0-23 2-32h30zM94-22c36 0 50-32 50-73 0-42-14-75-50-75-39 0-46 34-46 75s6 73 46 73" id="aw"/><g id="k"><use transform="matrix(0.05,0,0,0.05,0,0)" xlink:href="#av"/><use transform="matrix(0.05,0,0,0.05,10,0)" xlink:href="#ad"/><use transform="matrix(0.05,0,0,0.05,20,0)" xlink:href="#aw"/><use transform="matrix(0.05,0,0,0.05,30,0)" xlink:href="#ab"/><use transform="matrix(0.05,0,0,0.05,33.95,0)" xlink:href="#as"/><use transform="matrix(0.05,0,0,0.05,42.95,0)" xlink:href="#ai"/><use transform="matrix(0.05,0,0,0.05,52.95,0)" xlink:href="#at"/><use transform="matrix(0.05,0,0,0.05,56.900000000000006,0)" xlink:href="#au"/><use transform="matrix(0.05,0,0,0.05,62.85,0)" xlink:href="#ah"/><use transform="matrix(0.05,0,0,0.05,74.85000000000001,0)" xlink:href="#ac"/><use transform="matrix(0.05,0,0,0.05,80.80000000000001,0)" xlink:href="#af"/><use transform="matrix(0.05,0,0,0.05,90.80000000000001,0)" xlink:href="#ai"/></g><g id="l"><use transform="matrix(0.05,0,0,0.05,0,0)" xlink:href="#ak"/><use transform="matrix(0.05,0,0,0.05,12,0)" xlink:href="#ad"/><use transform="matrix(0.05,0,0,0.05,22,0)" xlink:href="#ab"/><use transform="matrix(0.05,0,0,0.05,25.950000000000003,0)" xlink:href="#Z"/><use transform="matrix(0.05,0,0,0.05,35.95,0)" xlink:href="#ag"/></g><path d="M87 75C49 33 22-17 22-94c0-76 28-126 65-167h31c-38 41-64 92-64 168S80 34 118 75H87" id="ax"/><path d="M33-261c38 41 65 92 65 168S71 34 33 75H2C39 34 66-17 66-93S39-220 2-261h31" id="ay"/><g id="m"><use transform="matrix(0.05,0,0,0.05,0,0)" xlink:href="#ax"/><use transform="matrix(0.05,0,0,0.05,5.95,0)" xlink:href="#av"/><use transform="matrix(0.05,0,0,0.05,15.949999999999998,0)" xlink:href="#ad"/><use transform="matrix(0.05,0,0,0.05,25.950000000000003,0)" xlink:href="#as"/><use transform="matrix(0.05,0,0,0.05,34.95,0)" xlink:href="#ai"/><use transform="matrix(0.05,0,0,0.05,44.95,0)" xlink:href="#ag"/><use transform="matrix(0.05,0,0,0.05,49.95,0)" xlink:href="#ab"/><use transform="matrix(0.05,0,0,0.05,53.900000000000006,0)" xlink:href="#ad"/><use transform="matrix(0.05,0,0,0.05,63.900000000000006,0)" xlink:href="#Z"/><use transform="matrix(0.05,0,0,0.05,73.9,0)" xlink:href="#ay"/></g><path d="M240 0l2-218c-23 76-54 145-80 218h-23L58-218 59 0H30v-248h44l77 211c21-75 51-140 76-211h43V0h-30" id="az"/><g id="n"><use transform="matrix(0.05,0,0,0.05,0,0)" xlink:href="#az"/><use transform="matrix(0.05,0,0,0.05,14.950000000000001,0)" xlink:href="#ab"/><use transform="matrix(0.05,0,0,0.05,18.900000000000002,0)" xlink:href="#an"/><use transform="matrix(0.05,0,0,0.05,27.900000000000002,0)" xlink:href="#an"/><use transform="matrix(0.05,0,0,0.05,36.900000000000006,0)" xlink:href="#ab"/><use transform="matrix(0.05,0,0,0.05,40.85000000000001,0)" xlink:href="#ad"/><use transform="matrix(0.05,0,0,0.05,50.85000000000001,0)" xlink:href="#Z"/></g><path d="M233-177c-1 41-23 64-60 70L243 0h-38l-65-103H63V0H30v-248c88 3 205-21 203 71zM63-129c60-2 137 13 137-47 0-61-80-42-137-45v92" id="aA"/><path d="M115-194c53 0 69 39 70 98 0 66-23 100-70 100C84 3 66-7 56-30L54 0H23l1-261h32v101c10-23 28-34 59-34zm-8 174c40 0 45-34 45-75 0-40-5-75-45-74-42 0-51 32-51 76 0 43 10 73 51 73" id="aB"/><g id="o"><use transform="matrix(0.05,0,0,0.05,0,0)" xlink:href="#aA"/><use transform="matrix(0.05,0,0,0.05,12.950000000000001,0)" xlink:href="#ad"/><use transform="matrix(0.05,0,0,0.05,22.950000000000003,0)" xlink:href="#aB"/><use transform="matrix(0.05,0,0,0.05,32.95,0)" xlink:href="#ad"/><use transform="matrix(0.05,0,0,0.05,42.95,0)" xlink:href="#ag"/></g><path d="M101-251c68 0 85 55 85 127S166 4 100 4C33 4 14-52 14-124c0-73 17-127 87-127zm-1 229c47 0 54-49 54-102s-4-102-53-102c-51 0-55 48-55 102 0 53 5 102 54 102" id="aC"/><path d="M33 0v-38h34V0H33" id="aD"/><g id="p"><use transform="matrix(0.05,0,0,0.05,0,0)" xlink:href="#aC"/><use transform="matrix(0.05,0,0,0.05,10,0)" xlink:href="#aD"/><use transform="matrix(0.05,0,0,0.05,15,0)" xlink:href="#aD"/><use transform="matrix(0.05,0,0,0.05,20,0)" xlink:href="#aj"/></g><g id="q"><use transform="matrix(0.05,0,0,0.05,0,0)" xlink:href="#ah"/><use transform="matrix(0.05,0,0,0.05,12,0)" xlink:href="#an"/><use transform="matrix(0.05,0,0,0.05,21,0)" xlink:href="#an"/><use transform="matrix(0.05,0,0,0.05,30,0)" xlink:href="#ab"/><use transform="matrix(0.05,0,0,0.05,33.95,0)" xlink:href="#aw"/><use transform="matrix(0.05,0,0,0.05,43.95,0)" xlink:href="#Z"/><use transform="matrix(0.05,0,0,0.05,53.95,0)" xlink:href="#ae"/><use transform="matrix(0.05,0,0,0.05,68.9,0)" xlink:href="#af"/><use transform="matrix(0.05,0,0,0.05,78.9,0)" xlink:href="#Z"/><use transform="matrix(0.05,0,0,0.05,88.9,0)" xlink:href="#ag"/></g><path d="M185-189c-5-48-123-54-124 2 14 75 158 14 163 119 3 78-121 87-175 55-17-10-28-26-33-46l33-7c5 56 141 63 141-1 0-78-155-14-162-118-5-82 145-84 179-34 5 7 8 16 11 25" id="aE"/><g id="r"><use transform="matrix(0.05,0,0,0.05,0,0)" xlink:href="#aE"/><use transform="matrix(0.05,0,0,0.05,12,0)" xlink:href="#af"/><use transform="matrix(0.05,0,0,0.05,22,0)" xlink:href="#Z"/><use transform="matrix(0.05,0,0,0.05,32,0)" xlink:href="#an"/><use transform="matrix(0.05,0,0,0.05,41,0)" xlink:href="#ad"/><use transform="matrix(0.05,0,0,0.05,51,0)" xlink:href="#ac"/></g><g id="s"><use transform="matrix(0.05,0,0,0.05,0,0)" xlink:href="#ah"/><use transform="matrix(0.05,0,0,0.05,12,0)" xlink:href="#as"/><use transform="matrix(0.05,0,0,0.05,21,0)" xlink:href="#ag"/><use transform="matrix(0.05,0,0,0.05,26,0)" xlink:href="#ap"/><use transform="matrix(0.05,0,0,0.05,36,0)" xlink:href="#ai"/><use transform="matrix(0.05,0,0,0.05,46,0)" xlink:href="#ag"/><use transform="matrix(0.05,0,0,0.05,51,0)" xlink:href="#ad"/><use transform="matrix(0.05,0,0,0.05,61,0)" xlink:href="#ac"/></g><use transform="matrix(0.05,0,0,0.05,0,0)" xlink:href="#aj" id="u"/><path d="M141 0L90-78 38 0H4l68-98-65-92h35l48 74 47-74h35l-64 92 68 98h-35" id="aF"/><g id="v"><use transform="matrix(0.05,0,0,0.05,0,0)" xlink:href="#ak"/><use transform="matrix(0.05,0,0,0.05,12,0)" xlink:href="#ac"/><use transform="matrix(0.05,0,0,0.05,17.95,0)" xlink:href="#ad"/><use transform="matrix(0.05,0,0,0.05,27.950000000000003,0)" xlink:href="#aF"/><use transform="matrix(0.05,0,0,0.05,36.95,0)" xlink:href="#ab"/><use transform="matrix(0.05,0,0,0.05,40.900000000000006,0)" xlink:href="#ae"/><use transform="matrix(0.05,0,0,0.05,55.85,0)" xlink:href="#ab"/><use transform="matrix(0.05,0,0,0.05,59.80000000000001,0)" xlink:href="#ag"/><use transform="matrix(0.05,0,0,0.05,64.80000000000001,0)" xlink:href="#aq"/></g><path d="M212-179c-10-28-35-45-73-45-59 0-87 40-87 99 0 60 29 101 89 101 43 0 62-24 78-52l27 14C228-24 195 4 139 4 59 4 22-46 18-125c-6-104 99-153 187-111 19 9 31 26 39 46" id="aG"/><g id="w"><use transform="matrix(0.05,0,0,0.05,0,0)" xlink:href="#aG"/><use transform="matrix(0.05,0,0,0.05,12.950000000000001,0)" xlink:href="#ai"/><use transform="matrix(0.05,0,0,0.05,22.950000000000003,0)" xlink:href="#ae"/><use transform="matrix(0.05,0,0,0.05,37.900000000000006,0)" xlink:href="#af"/><use transform="matrix(0.05,0,0,0.05,47.900000000000006,0)" xlink:href="#ac"/><use transform="matrix(0.05,0,0,0.05,53.85,0)" xlink:href="#ai"/></g><path d="M143 4C61 4 22-44 18-125c-5-107 100-154 193-111 17 8 29 25 37 43l-32 9c-13-25-37-40-76-40-61 0-88 39-88 99 0 61 29 100 91 101 35 0 62-11 79-27v-45h-74v-28h105v86C228-13 192 4 143 4" id="aH"/><g id="x"><use transform="matrix(0.05,0,0,0.05,0,0)" xlink:href="#aH"/><use transform="matrix(0.05,0,0,0.05,14,0)" xlink:href="#ak"/><use transform="matrix(0.05,0,0,0.05,26,0)" xlink:href="#aE"/></g><path d="M266 0h-40l-56-210L115 0H75L2-248h35L96-30l15-64 43-154h32l59 218 59-218h35" id="aI"/><g id="y"><use transform="matrix(0.05,0,0,0.05,0,0)" xlink:href="#aI"/><use transform="matrix(0.05,0,0,0.05,16.95,0)" xlink:href="#ar"/><use transform="matrix(0.05,0,0,0.05,26.950000000000003,0)" xlink:href="#af"/><use transform="matrix(0.05,0,0,0.05,36.95,0)" xlink:href="#af"/><use transform="matrix(0.05,0,0,0.05,46.95,0)" xlink:href="#at"/></g><path d="M206 0h-36l-40-164L89 0H53L-1-190h32L70-26l43-164h34l41 164 42-164h31" id="aJ"/><path d="M143 0L79-87 56-68V0H24v-261h32v163l83-92h37l-77 82L181 0h-38" id="aK"/><path d="M30-248c118-7 216 8 213 122C240-48 200 0 122 0H30v-248zM63-27c89 8 146-16 146-99s-60-101-146-95v194" id="aL"/><g id="z"><use transform="matrix(0.05,0,0,0.05,0,0)" xlink:href="#am"/><use transform="matrix(0.05,0,0,0.05,12.950000000000001,0)" xlink:href="#af"/><use transform="matrix(0.05,0,0,0.05,22.950000000000003,0)" xlink:href="#ag"/><use transform="matrix(0.05,0,0,0.05,27.950000000000003,0)" xlink:href="#aJ"/><use transform="matrix(0.05,0,0,0.05,40.900000000000006,0)" xlink:href="#ad"/><use transform="matrix(0.05,0,0,0.05,50.900000000000006,0)" xlink:href="#ac"/><use transform="matrix(0.05,0,0,0.05,56.85,0)" xlink:href="#aK"/><use transform="matrix(0.05,0,0,0.05,65.85000000000001,0)" xlink:href="#ab"/><use transform="matrix(0.05,0,0,0.05,69.80000000000001,0)" xlink:href="#Z"/><use transform="matrix(0.05,0,0,0.05,79.80000000000001,0)" xlink:href="#aw"/><use transform="matrix(0.05,0,0,0.05,89.80000000000001,0)" xlink:href="#au"/><use transform="matrix(0.05,0,0,0.05,95.75000000000001,0)" xlink:href="#aL"/><use transform="matrix(0.05,0,0,0.05,108.7,0)" xlink:href="#af"/><use transform="matrix(0.05,0,0,0.05,118.7,0)" xlink:href="#aa"/><use transform="matrix(0.05,0,0,0.05,127.7,0)" xlink:href="#ab"/><use transform="matrix(0.05,0,0,0.05,131.65,0)" xlink:href="#as"/><use transform="matrix(0.05,0,0,0.05,140.65,0)" xlink:href="#af"/></g><g id="A"><use transform="matrix(0.05,0,0,0.05,0,0)" xlink:href="#aE"/><use transform="matrix(0.05,0,0,0.05,12,0)" xlink:href="#af"/><use transform="matrix(0.05,0,0,0.05,22,0)" xlink:href="#Z"/><use transform="matrix(0.05,0,0,0.05,32,0)" xlink:href="#al"/><use transform="matrix(0.05,0,0,0.05,42,0)" xlink:href="#an"/></g><g id="B"><use transform="matrix(0.05,0,0,0.05,0,0)" xlink:href="#ag"/><use transform="matrix(0.05,0,0,0.05,5,0)" xlink:href="#ad"/></g><g id="C"><use transform="matrix(0.05,0,0,0.05,0,0)" xlink:href="#aj"/><use transform="matrix(0.05,0,0,0.05,10,0)" xlink:href="#au"/></g><g id="D"><use transform="matrix(0.05,0,0,0.05,0,0)" xlink:href="#ak"/><use transform="matrix(0.05,0,0,0.05,12,0)" xlink:href="#ai"/><use transform="matrix(0.05,0,0,0.05,22,0)" xlink:href="#ac"/><use transform="matrix(0.05,0,0,0.05,27.950000000000003,0)" xlink:href="#ag"/></g><path d="M101-234c-31-9-42 10-38 44h38v23H63V0H32v-167H5v-23h27c-7-52 17-82 69-68v24" id="aM"/><g id="E"><use transform="matrix(0.05,0,0,0.05,0,0)" xlink:href="#ad"/><use transform="matrix(0.05,0,0,0.05,10,0)" xlink:href="#aM"/></g><g id="F"><use transform="matrix(0.05,0,0,0.05,0,0)" xlink:href="#aG"/><use transform="matrix(0.05,0,0,0.05,12.950000000000001,0)" xlink:href="#ad"/><use transform="matrix(0.05,0,0,0.05,22.950000000000003,0)" xlink:href="#Z"/><use transform="matrix(0.05,0,0,0.05,32.95,0)" xlink:href="#ag"/><use transform="matrix(0.05,0,0,0.05,37.95,0)" xlink:href="#ac"/><use transform="matrix(0.05,0,0,0.05,43.900000000000006,0)" xlink:href="#ad"/><use transform="matrix(0.05,0,0,0.05,53.900000000000006,0)" xlink:href="#at"/></g><g id="G"><use transform="matrix(0.05,0,0,0.05,0,0)" xlink:href="#aE"/><use transform="matrix(0.05,0,0,0.05,12,0)" xlink:href="#ag"/><use transform="matrix(0.05,0,0,0.05,17,0)" xlink:href="#ai"/><use transform="matrix(0.05,0,0,0.05,27,0)" xlink:href="#ag"/><use transform="matrix(0.05,0,0,0.05,32,0)" xlink:href="#ab"/><use transform="matrix(0.05,0,0,0.05,35.95,0)" xlink:href="#ad"/><use transform="matrix(0.05,0,0,0.05,45.95,0)" xlink:href="#Z"/></g><g id="I"><use transform="matrix(0.05,0,0,0.05,0,0)" xlink:href="#ak"/><use transform="matrix(0.05,0,0,0.05,12,0)" xlink:href="#ai"/><use transform="matrix(0.05,0,0,0.05,22,0)" xlink:href="#ac"/><use transform="matrix(0.05,0,0,0.05,27.950000000000003,0)" xlink:href="#ag"/></g><g id="J"><use transform="matrix(0.05,0,0,0.05,0,0)" xlink:href="#ad"/><use transform="matrix(0.05,0,0,0.05,10,0)" xlink:href="#aM"/></g><path d="M140-251c81 0 123 46 123 126C263-46 219 4 140 4 59 4 17-45 17-125s42-126 123-126zm0 227c63 0 89-41 89-101s-29-99-89-99c-61 0-89 39-89 99S79-25 140-24" id="aN"/><path d="M115-194c55 1 70 41 70 98S169 2 115 4C84 4 66-9 55-30l1 105H24l-1-265h31l2 30c10-21 28-34 59-34zm-8 174c40 0 45-34 45-75s-6-73-45-74c-42 0-51 32-51 76 0 43 10 73 51 73" id="aO"/><g id="K"><use transform="matrix(0.05,0,0,0.05,0,0)" xlink:href="#aN"/><use transform="matrix(0.05,0,0,0.05,14,0)" xlink:href="#aO"/><use transform="matrix(0.05,0,0,0.05,24,0)" xlink:href="#af"/><use transform="matrix(0.05,0,0,0.05,34,0)" xlink:href="#ac"/><use transform="matrix(0.05,0,0,0.05,39.95,0)" xlink:href="#ai"/><use transform="matrix(0.05,0,0,0.05,49.95,0)" xlink:href="#ag"/><use transform="matrix(0.05,0,0,0.05,54.95,0)" xlink:href="#ad"/><use transform="matrix(0.05,0,0,0.05,64.95,0)" xlink:href="#ac"/></g><path d="M33 0v-248h34V0H33" id="aP"/><g id="L"><use transform="matrix(0.05,0,0,0.05,0,0)" xlink:href="#aP"/><use transform="matrix(0.05,0,0,0.05,5,0)" xlink:href="#Z"/><use transform="matrix(0.05,0,0,0.05,15,0)" xlink:href="#ag"/><use transform="matrix(0.05,0,0,0.05,20,0)" xlink:href="#af"/><use transform="matrix(0.05,0,0,0.05,30,0)" xlink:href="#ac"/><use transform="matrix(0.05,0,0,0.05,35.95,0)" xlink:href="#aM"/><use transform="matrix(0.05,0,0,0.05,40.95,0)" xlink:href="#ai"/><use transform="matrix(0.05,0,0,0.05,50.95,0)" xlink:href="#as"/><use transform="matrix(0.05,0,0,0.05,59.95,0)" xlink:href="#af"/></g><g id="M"><use transform="matrix(0.05,0,0,0.05,0,0)" xlink:href="#aE"/><use transform="matrix(0.05,0,0,0.05,12,0)" xlink:href="#ag"/><use transform="matrix(0.05,0,0,0.05,17,0)" xlink:href="#ac"/><use transform="matrix(0.05,0,0,0.05,22.95,0)" xlink:href="#ai"/><use transform="matrix(0.05,0,0,0.05,32.95,0)" xlink:href="#ag"/><use transform="matrix(0.05,0,0,0.05,37.95,0)" xlink:href="#af"/><use transform="matrix(0.05,0,0,0.05,47.95,0)" xlink:href="#aw"/><use transform="matrix(0.05,0,0,0.05,57.95,0)" xlink:href="#aq"/></g><g id="N"><use transform="matrix(0.05,0,0,0.05,0,0)" xlink:href="#aA"/><use transform="matrix(0.05,0,0,0.05,12.950000000000001,0)" xlink:href="#af"/><use transform="matrix(0.05,0,0,0.05,22.950000000000003,0)" xlink:href="#aJ"/><use transform="matrix(0.05,0,0,0.05,35.900000000000006,0)" xlink:href="#ai"/><use transform="matrix(0.05,0,0,0.05,45.900000000000006,0)" xlink:href="#ac"/><use transform="matrix(0.05,0,0,0.05,51.85,0)" xlink:href="#al"/></g><g id="O"><use transform="matrix(0.05,0,0,0.05,0,0)" xlink:href="#ak"/><use transform="matrix(0.05,0,0,0.05,12,0)" xlink:href="#ad"/><use transform="matrix(0.05,0,0,0.05,22,0)" xlink:href="#ab"/><use transform="matrix(0.05,0,0,0.05,25.950000000000003,0)" xlink:href="#Z"/><use transform="matrix(0.05,0,0,0.05,35.95,0)" xlink:href="#ag"/></g><g id="P"><use transform="matrix(0.05,0,0,0.05,0,0)" xlink:href="#ak"/><use transform="matrix(0.05,0,0,0.05,12,0)" xlink:href="#ac"/><use transform="matrix(0.05,0,0,0.05,17.95,0)" xlink:href="#ad"/><use transform="matrix(0.05,0,0,0.05,27.950000000000003,0)" xlink:href="#as"/><use transform="matrix(0.05,0,0,0.05,36.95,0)" xlink:href="#af"/><use transform="matrix(0.05,0,0,0.05,46.95,0)" xlink:href="#al"/><use transform="matrix(0.05,0,0,0.05,56.95,0)" xlink:href="#ap"/><use transform="matrix(0.05,0,0,0.05,66.95,0)" xlink:href="#ac"/><use transform="matrix(0.05,0,0,0.05,72.9,0)" xlink:href="#af"/></g><use transform="matrix(0.05,0,0,0.05,0,0)" xlink:href="#ah" id="Q"/><use transform="matrix(0.05,0,0,0.05,0,0)" xlink:href="#ao" id="R"/><g id="S"><use transform="matrix(0.05,0,0,0.05,0,0)" xlink:href="#aN"/><use transform="matrix(0.05,0,0,0.05,14,0)" xlink:href="#aB"/><use transform="matrix(0.05,0,0,0.05,24,0)" xlink:href="#an"/><use transform="matrix(0.05,0,0,0.05,33,0)" xlink:href="#ag"/><use transform="matrix(0.05,0,0,0.05,38,0)" xlink:href="#ai"/><use transform="matrix(0.05,0,0,0.05,48,0)" xlink:href="#as"/><use transform="matrix(0.05,0,0,0.05,57,0)" xlink:href="#at"/><use transform="matrix(0.05,0,0,0.05,60.95,0)" xlink:href="#af"/></g><g id="T"><use transform="matrix(0.05,0,0,0.05,0,0)" xlink:href="#aE"/><use transform="matrix(0.05,0,0,0.05,12,0)" xlink:href="#ag"/><use transform="matrix(0.05,0,0,0.05,17,0)" xlink:href="#ai"/><use transform="matrix(0.05,0,0,0.05,27,0)" xlink:href="#ag"/><use transform="matrix(0.05,0,0,0.05,32,0)" xlink:href="#ab"/><use transform="matrix(0.05,0,0,0.05,35.95,0)" xlink:href="#as"/></g><g id="U"><use transform="matrix(0.05,0,0,0.05,0,0)" xlink:href="#aN"/><use transform="matrix(0.05,0,0,0.05,14,0)" xlink:href="#aB"/><use transform="matrix(0.05,0,0,0.05,24,0)" xlink:href="#an"/><use transform="matrix(0.05,0,0,0.05,33,0)" xlink:href="#ag"/><use transform="matrix(0.05,0,0,0.05,38,0)" xlink:href="#ai"/><use transform="matrix(0.05,0,0,0.05,48,0)" xlink:href="#as"/><use transform="matrix(0.05,0,0,0.05,57,0)" xlink:href="#at"/><use transform="matrix(0.05,0,0,0.05,60.95,0)" xlink:href="#af"/></g><use transform="matrix(0.05,0,0,0.05,0,0)" xlink:href="#aj" id="W"/><g id="X"><use transform="matrix(0.05,0,0,0.05,0,0)" xlink:href="#aG"/><use transform="matrix(0.05,0,0,0.05,12.950000000000001,0)" xlink:href="#ad"/><use transform="matrix(0.05,0,0,0.05,22.950000000000003,0)" xlink:href="#at"/><use transform="matrix(0.05,0,0,0.05,26.900000000000002,0)" xlink:href="#ad"/><use transform="matrix(0.05,0,0,0.05,36.900000000000006,0)" xlink:href="#ap"/><use transform="matrix(0.05,0,0,0.05,46.900000000000006,0)" xlink:href="#ac"/></g></defs></g></svg>